<mxfile host="app.diagrams.net" modified="2023-05-25T07:41:09.351Z" agent="Mozilla/5.0 (Windows NT 10.0; Win64; x64) AppleWebKit/537.36 (KHTML, like Gecko) Chrome/113.0.0.0 Safari/537.36" etag="DHQpC2RpZNFOnVs-vUMb" version="21.3.2" type="github">
  <diagram name="第 1 页" id="DM_-vN8VNymhDFdYKSDz">
    <mxGraphModel dx="200" dy="479" grid="0" gridSize="10" guides="1" tooltips="1" connect="1" arrows="1" fold="1" page="1" pageScale="1" pageWidth="827" pageHeight="1169" math="0" shadow="0">
      <root>
        <mxCell id="0" />
        <mxCell id="1" parent="0" />
        <mxCell id="bOvdJOGdb00GVE9bvjSs-1" value="&lt;font style=&quot;font-size: 18px;&quot;&gt;用户-角色&lt;/font&gt;" style="rounded=0;whiteSpace=wrap;html=1;" vertex="1" parent="1">
          <mxGeometry x="1261" y="706" width="120" height="60" as="geometry" />
        </mxCell>
        <mxCell id="bOvdJOGdb00GVE9bvjSs-2" value="&lt;font style=&quot;font-size: 18px;&quot;&gt;用户-角色id&lt;/font&gt;" style="ellipse;whiteSpace=wrap;html=1;" vertex="1" parent="1">
          <mxGeometry x="1083" y="696" width="117" height="80" as="geometry" />
        </mxCell>
        <mxCell id="bOvdJOGdb00GVE9bvjSs-3" value="&lt;font style=&quot;font-size: 18px;&quot;&gt;角色id&lt;/font&gt;" style="ellipse;whiteSpace=wrap;html=1;" vertex="1" parent="1">
          <mxGeometry x="1442" y="696" width="117" height="80" as="geometry" />
        </mxCell>
        <mxCell id="bOvdJOGdb00GVE9bvjSs-4" value="&lt;font style=&quot;font-size: 18px;&quot;&gt;用户id&lt;/font&gt;" style="ellipse;whiteSpace=wrap;html=1;" vertex="1" parent="1">
          <mxGeometry x="1262.5" y="580" width="117" height="80" as="geometry" />
        </mxCell>
        <mxCell id="bOvdJOGdb00GVE9bvjSs-5" value="" style="endArrow=none;html=1;rounded=0;exitX=1;exitY=0.5;exitDx=0;exitDy=0;entryX=0;entryY=0.5;entryDx=0;entryDy=0;" edge="1" parent="1" source="bOvdJOGdb00GVE9bvjSs-2" target="bOvdJOGdb00GVE9bvjSs-1">
          <mxGeometry width="50" height="50" relative="1" as="geometry">
            <mxPoint x="1225" y="700" as="sourcePoint" />
            <mxPoint x="1275" y="650" as="targetPoint" />
          </mxGeometry>
        </mxCell>
        <mxCell id="bOvdJOGdb00GVE9bvjSs-6" value="" style="endArrow=none;html=1;rounded=0;exitX=0.5;exitY=1;exitDx=0;exitDy=0;entryX=0.5;entryY=0;entryDx=0;entryDy=0;" edge="1" parent="1" source="bOvdJOGdb00GVE9bvjSs-4" target="bOvdJOGdb00GVE9bvjSs-1">
          <mxGeometry width="50" height="50" relative="1" as="geometry">
            <mxPoint x="1192" y="740" as="sourcePoint" />
            <mxPoint x="1265" y="740" as="targetPoint" />
          </mxGeometry>
        </mxCell>
        <mxCell id="bOvdJOGdb00GVE9bvjSs-7" value="" style="endArrow=none;html=1;rounded=0;exitX=1;exitY=0.5;exitDx=0;exitDy=0;entryX=0;entryY=0.5;entryDx=0;entryDy=0;" edge="1" parent="1" source="bOvdJOGdb00GVE9bvjSs-1" target="bOvdJOGdb00GVE9bvjSs-3">
          <mxGeometry width="50" height="50" relative="1" as="geometry">
            <mxPoint x="1196" y="744" as="sourcePoint" />
            <mxPoint x="1269" y="744" as="targetPoint" />
          </mxGeometry>
        </mxCell>
      </root>
    </mxGraphModel>
  </diagram>
</mxfile>
